<?xml version="1.0" standalone="no"?><!DOCTYPE svg PUBLIC "-//W3C//DTD SVG 1.1//EN" "http://www.w3.org/Graphics/SVG/1.1/DTD/svg11.dtd"><svg t="1517816630354" class="icon" style="" viewBox="0 0 1024 1024" version="1.1" xmlns="http://www.w3.org/2000/svg" p-id="26301" xmlns:xlink="http://www.w3.org/1999/xlink" width="128" height="128"><defs><style type="text/css"></style></defs><path d="M512.000719 0C228.207217 0 0 227.556354 0 510.540947 0 793.525538 228.207217 1024 512.000719 1024 795.792783 1024 1024 793.531285 1024 510.540947 1024 227.556354 795.792783 0 512.000719 0ZM272.965527 170.339934 332.995878 128 357.888439 135.302816 458.922703 281.305911 455.988922 304.665429 397.41971 345.549978C371.067447 367.448356 388.634185 395.188414 407.672126 447.75344 425.244617 478.414334 464.775885 539.737562 491.133901 563.095642 536.524105 601.059351 557.023185 625.878569 587.76893 608.356414L643.412988 568.937318 665.377521 571.859595 770.799516 713.486468 767.872924 738.305685 710.769165 782.106758C656.591996 798.167774 523.345097 824.446692 357.888439 590.841451 170.470125 338.247162 245.146374 195.164905 272.965527 170.339934Z" p-id="26302" fill="#409EFF"></path></svg>