<?xml version="1.0" standalone="no"?><!DOCTYPE svg PUBLIC "-//W3C//DTD SVG 1.1//EN" "http://www.w3.org/Graphics/SVG/1.1/DTD/svg11.dtd"><svg t="1517883242475" class="icon" style="" viewBox="0 0 1024 1024" version="1.1" xmlns="http://www.w3.org/2000/svg" p-id="31524" xmlns:xlink="http://www.w3.org/1999/xlink" width="128" height="128"><defs><style type="text/css"></style></defs><path d="M512 51.2C257.5104 51.2 51.2 257.5104 51.2 512c0 254.4896 206.3104 460.8 460.8 460.8 254.4896 0 460.8-206.3104 460.8-460.8C972.8 257.5104 766.4896 51.2 512 51.2L512 51.2zM502.656 689.6384c0 20.6848-16.768 37.4016-37.4016 37.4016l-130.8928 0c-20.6592 0-37.4016-16.7168-37.4016-37.4016l0-130.8928c0-20.6592 16.7424-37.376 37.4016-37.376l130.8928 0c20.6336 0 37.4016 16.7424 37.4016 37.376L502.656 689.6384 502.656 689.6384zM502.656 465.2544c0 20.6336-16.768 37.376-37.4016 37.376l-130.8928 0c-20.6592 0-37.4016-16.7424-37.4016-37.376l0-130.9184c0-20.6592 16.7424-37.376 37.4016-37.376l130.8928 0c20.6336 0 37.4016 16.7168 37.4016 37.376L502.656 465.2544 502.656 465.2544zM727.04 689.6384c0 20.6848-16.7424 37.4016-37.4016 37.4016l-130.8928 0c-20.6592 0-37.4016-16.7168-37.4016-37.4016l0-130.8928c0-20.6592 16.7424-37.376 37.4016-37.376l130.8928 0c20.6592 0 37.4016 16.7424 37.4016 37.376L727.04 689.6384 727.04 689.6384zM727.04 465.2544c0 20.6336-16.7424 37.376-37.4016 37.376l-130.8928 0c-20.6592 0-37.4016-16.7424-37.4016-37.376l0-130.9184c0-20.6592 16.7424-37.376 37.4016-37.376l130.8928 0c20.6592 0 37.4016 16.7168 37.4016 37.376L727.04 465.2544 727.04 465.2544zM727.04 465.2544" p-id="31525" fill="#409EFF"></path></svg>